<?xml version="1.0" standalone="no"?>
<!DOCTYPE svg PUBLIC "-//W3C//DTD SVG 20010904//EN"
 "http://www.w3.org/TR/2001/REC-SVG-20010904/DTD/svg10.dtd">
<svg version="1.0" xmlns="http://www.w3.org/2000/svg"
 width="128.000000pt" height="128.000000pt" viewBox="0 0 128.000000 128.000000"
 preserveAspectRatio="xMidYMid meet">

<g transform="translate(0.000000,128.000000) scale(0.100000,-0.100000)"
fill="#000000" stroke="none">
<path d="M390 1086 l-125 -73 -5 -148 -5 -148 -125 -72 -125 -73 -3 -149 -2
-148 131 -77 132 -76 121 70 c66 39 123 72 126 73 3 2 61 -30 130 -70 l125
-73 30 18 c17 9 74 43 127 74 l97 56 3 147 3 146 125 72 125 73 3 150 3 149
-132 75 -132 76 -121 -71 c-67 -39 -125 -70 -131 -70 -8 0 -82 41 -220 123
l-30 18 -125 -72z m298 -48 l73 -42 -3 -139 -3 -139 -120 -70 c-114 -66 -121
-69 -145 -55 -14 8 -69 40 -122 71 l-98 57 0 138 0 137 122 71 123 71 50 -29
c27 -16 83 -48 123 -71z m455 27 l118 -67 -3 -141 -3 -141 -118 -68 -118 -69
-117 67 c-64 37 -118 68 -120 69 -6 5 -3 277 3 283 11 12 230 139 235 137 3
-1 58 -33 123 -70z m-746 -442 l113 -65 0 -133 c0 -94 -4 -136 -13 -143 -6 -5
-62 -39 -122 -74 l-111 -65 -122 70 -123 70 3 140 3 141 115 67 c63 37 122 66
130 63 8 -3 65 -35 127 -71z m490 9 l118 -68 3 -140 3 -140 -122 -70 -122 -71
-124 71 -124 71 3 138 3 139 115 68 c63 37 118 68 122 69 3 1 59 -30 125 -67z"/>
<path d="M410 1039 c-120 -70 -114 -65 -103 -72 11 -7 213 111 213 124 0 13 6
16 -110 -52z"/>
<path d="M920 1043 c-101 -58 -117 -69 -108 -78 3 -3 52 22 109 56 119 70 113
65 102 72 -4 3 -51 -20 -103 -50z"/>
<path d="M1210 854 c0 -81 4 -123 10 -119 6 4 10 57 10 126 0 73 -4 119 -10
119 -6 0 -10 -49 -10 -126z"/>
<path d="M810 743 c0 -9 186 -116 210 -121 29 -7 -11 23 -103 77 -88 50 -107
58 -107 44z"/>
<path d="M162 606 c-99 -57 -125 -76 -104 -76 17 0 212 112 212 122 0 14 -13
8 -108 -46z"/>
<path d="M56 311 c-3 -5 40 -35 96 -67 123 -71 118 -68 118 -55 0 5 -33 29
-72 52 -40 23 -87 50 -105 61 -17 10 -34 15 -37 9z"/>
<path d="M560 426 c0 -77 4 -126 10 -126 6 0 10 46 10 119 0 69 -4 122 -10
126 -6 4 -10 -38 -10 -119z"/>
<path d="M862 259 c-112 -66 -142 -103 -34 -43 111 62 155 91 145 97 -5 3 -55
-21 -111 -54z"/>
</g>
</svg>
